<?xml version="1.0"?>
<svg xmlns="http://www.w3.org/2000/svg" viewBox="-5 -6 150 50">
  <defs>
    <style>.cls-1{fill:#0f2544;}.cls-2{fill:#0a2240;}.cls-3{fill:#3cb4e5;}.cls-4{fill:#ea6852;}.cls-5{fill:#bbbdbf;}</style>
  </defs>
  <title>Asset 1</title>
  <g id="Layer_2">
    <g id="Layer_1-2">
      <path class="cls-1" d="M8.23,20.29h4V25A5.16,5.16,0,0,1,9,26c-3.85,0-6.15-2.85-6.15-7.62S5.18,10.9,9,10.9a5,5,0,0,1,3.91,1.72l.12.13L14.61,11l-.1-.11a7.57,7.57,0,0,0-5.57-2.4c-5.35,0-8.94,4-8.94,10s3.42,10,8.71,10a8.73,8.73,0,0,0,6-2.25l0,0V18H8.23Z"/>
      <path class="cls-1" d="M21.15,26.16a1.93,1.93,0,0,1-.48.05c-.32,0-.5-.32-.5-.87V7.42H17.5V25.17c0,2.23.87,3.31,2.65,3.31a3.36,3.36,0,0,0,1.42-.24l.11,0-.37-2.07Z"/>
      <path class="cls-1" d="M31.53,20.89v3.6c-1.44,1.28-2.47,1.78-3.65,1.78a2,2,0,0,1-2.27-2.07c0-1.79,1.77-2.78,5.92-3.31M29.2,13.55a10.36,10.36,0,0,0-5.56,1.83l-.13.09,1.11,1.92.15-.1a7.12,7.12,0,0,1,4.06-1.46c1.75,0,2.66,1.07,2.7,3.18-6,.69-8.56,2.29-8.56,5.36a4,4,0,0,0,4.25,4.11,7.33,7.33,0,0,0,4.54-1.9L32,28.14H34.2v-8.7c0-3.85-1.73-5.89-5-5.89"/>
      <path class="cls-1" d="M41.34,19.8l-.22-.08c-1.48-.56-2.77-1-2.77-2.17,0-.89.63-1.84,2.39-1.84a5,5,0,0,1,3.08,1.2L44,17l1.31-1.75-.12-.1a7.17,7.17,0,0,0-4.43-1.61c-3,0-5,1.66-5,4.12S38,21.08,40,21.83c1.44.54,3.07,1.16,3.07,2.48s-1,2-2.58,2a6.23,6.23,0,0,1-4-1.62l-.13-.11L35,26.43l.12.1a8.63,8.63,0,0,0,5.29,1.95c3.64,0,5.26-2.16,5.26-4.31,0-2.75-2.31-3.61-4.34-4.37"/>
      <path class="cls-2" d="M52.19,19.8,52,19.72c-1.48-.56-2.77-1-2.77-2.17,0-.89.63-1.84,2.39-1.84a5,5,0,0,1,3.08,1.2l.13.1,1.31-1.75-.12-.1a7.17,7.17,0,0,0-4.43-1.61c-3,0-5,1.66-5,4.12s2.2,3.41,4.26,4.16c1.44.54,3.07,1.16,3.07,2.48s-1,2-2.58,2a6.18,6.18,0,0,1-4-1.62l-.14-.11-1.37,1.84.13.1a8.58,8.58,0,0,0,5.28,1.95c3.64,0,5.26-2.16,5.26-4.31,0-2.75-2.3-3.61-4.34-4.37"/>
      <path class="cls-2" d="M67,19.82h-7.1c.31-2.41,1.87-4.08,3.83-4.08S67,17.19,67,19.82M63.7,13.55c-3.11,0-6.41,2.63-6.41,7.5,0,4.37,2.81,7.43,6.84,7.43A8.45,8.45,0,0,0,68.8,27l.13-.09-1-1.83-.15.09a6,6,0,0,1-3.37,1.07c-2.55,0-4.24-1.75-4.47-4.57h9.36l0-.14a8.11,8.11,0,0,0,.09-1.32c0-4.19-2.14-6.69-5.72-6.69"/>
      <path class="cls-2" d="M76.1,19.8l-.22-.08c-1.48-.56-2.77-1-2.77-2.17,0-.89.63-1.84,2.39-1.84a5,5,0,0,1,3.08,1.2l.13.1L80,15.26l-.12-.1a7.17,7.17,0,0,0-4.43-1.61c-3,0-5,1.66-5,4.12s2.2,3.41,4.26,4.16c1.44.54,3.07,1.16,3.07,2.48s-1,2-2.58,2a6.23,6.23,0,0,1-4-1.62l-.13-.11-1.37,1.84.12.1a8.63,8.63,0,0,0,5.29,1.95c3.64,0,5.26-2.16,5.26-4.31,0-2.75-2.31-3.61-4.34-4.37"/>
      <path class="cls-3" d="M93.51,20.27c0,3.85-1.44,5.79-4.3,5.79S85,24.12,85,20.27V9H82.29V20.21c0,3.78,1.2,8.27,6.92,8.27s6.92-4.49,6.92-8.27V9H93.51Z"/>
      <path class="cls-3" d="M106.4,17.8l-2.69-1.14-.07,0c-1.45-.63-3-1.27-3-2.94S102,11.1,104,11.1a5.9,5.9,0,0,1,4.16,1.73l.13.12,1.46-1.79-.1-.11A7.86,7.86,0,0,0,104,8.68c-3.47,0-6.09,2.22-6.09,5.15,0,2.24,1.28,3.87,3.91,5L104.55,20l0,0c1.74.78,3,1.35,3,3.14s-1.44,2.9-3.76,2.9a7.12,7.12,0,0,1-5.06-2.29l-.13-.13L97,25.55l.1.11a9.21,9.21,0,0,0,6.68,2.82c3.87,0,6.57-2.27,6.57-5.52,0-3-2-4.31-4-5.16"/>
      <path class="cls-3" d="M120.94,20.17h-5.19l.85-2.66c.59-1.88,1.15-3.79,1.76-6,.61,2.18,1.17,4.09,1.76,6ZM119.85,9h-2.93l-6.47,19.11h2.79l1.8-5.73h6.61l1.8,5.73h2.87Z"/>
      <path class="cls-2" d="M80.44,35.3a.73.73,0,0,1,0,1.45.73.73,0,0,1,0-1.45"/>
      <path class="cls-2" d="M84.15,32a1.87,1.87,0,0,1,1.34.53l-.51.68a1.17,1.17,0,0,0-.77-.34c-.74,0-1.25.61-1.25,1.53s.5,1.52,1.22,1.52a1.54,1.54,0,0,0,.94-.39l.44.67a2.22,2.22,0,0,1-1.49.59,2.17,2.17,0,0,1-2.21-2.39A2.25,2.25,0,0,1,84.15,32"/>
      <path class="cls-2" d="M87.92,35.88c.67,0,1.07-.61,1.07-1.52s-.4-1.53-1.07-1.53-1.07.61-1.07,1.53.4,1.52,1.07,1.52m0-3.92a2.21,2.21,0,0,1,2.17,2.4,2.18,2.18,0,1,1-4.34,0A2.21,2.21,0,0,1,87.92,32"/>
      <path class="cls-2" d="M91,32.07h.88l.07.63h0a1.94,1.94,0,0,1,1.4-.74,1.24,1.24,0,0,1,1.26.82A2.06,2.06,0,0,1,96.09,32c1,0,1.41.66,1.41,1.81v2.87H96.42V33.91c0-.75-.22-1-.69-1a1.42,1.42,0,0,0-1,.57v3.19H93.7V33.91c0-.75-.22-1-.71-1a1.43,1.43,0,0,0-.95.57v3.19H91Z"/>
      <path class="cls-4" d="M100.55,36.64H121.8a.87.87,0,0,0,.28,0,11.57,11.57,0,0,0,4.38-1.07,9.76,9.76,0,0,0,4.8-5.59c.53-1.43,1.2-3.77,1.77-5.86h0a.85.85,0,0,0,0-.09c.58-2.12,1.14-4.37,1.63-6.39.6-2.32,1.24-4.71,1.64-6.11,1.23-4.26-.78-5.11-3.81-6.4L132.26,5a30.48,30.48,0,0,0-2.9-1h0l-.2-.06-2.11-.6c-2.18-.6-4.36-1.14-6.56-1.62l-.56-.13h0A69.36,69.36,0,0,0,108.54.07a71.78,71.78,0,0,0-21.1,2.21c-1.34.35-2.66.72-4,1.14a70.35,70.35,0,0,0-7.53,3c-.64.28-1.3.58-1.93.9l-1,.52c-.25.15-.68.3-.79.6a.55.55,0,0,0,0,.45l0,.08c.21.37.59.27.9.11s.91-.46,1.37-.68c1.71-.82,3.48-1.54,5.25-2.21,1.42-.54,2.85-1,4.3-1.47,1.74-.53,3.51-1,5.29-1.35a63.59,63.59,0,0,1,6.28-1,70.68,70.68,0,0,1,7.27-.4,75.74,75.74,0,0,1,8.25.44,85,85,0,0,1,9.23,1.52,96.9,96.9,0,0,1,10.2,2.84c.17,0,.52.18.82.29l.2.09c3,1.27,3.26,1.38,2.57,3.77-.15.53-.39,1.39-.65,2.42h0l-.08.36c-.89,3.45-2.11,8.38-2.14,8.49-.66,2.4-1.47,5.22-2.13,7a7.57,7.57,0,0,1-3.78,4.42,12.26,12.26,0,0,1-4.52,1H100.55Z"/>
      <path class="cls-5" d="M138.33,1.9V1.16h2.95V1.9h-1V4.71h-.88V1.9Z"/>
      <path class="cls-5" d="M142.9,1.16l.43,1.55a2.18,2.18,0,0,1,.06.22l.06.27a3,3,0,0,1,.08.32h0c0-.11.05-.22.08-.32l.06-.27a1.5,1.5,0,0,0,.06-.22l.44-1.55h1.19V4.71h-.8V2.51a2.81,2.81,0,0,0,0-.3h0c0,.1,0,.2-.07.28a1.42,1.42,0,0,1-.05.22l0,.16-.51,1.84h-.73l-.51-1.83,0-.16-.06-.23c0-.08,0-.18-.06-.28h0v.3a1.93,1.93,0,0,1,0,.24v2h-.79V1.16Z"/>
    </g>
  </g>
</svg>
